<svg width="116" height="26" viewBox="0 0 116 26" fill="none" xmlns="http://www.w3.org/2000/svg">
<path d="M3.60126 21.7836C2.57001 20.7732 1.74709 19.5545 1.13251 18.1274C0.528341 16.6899 0.226257 15.1274 0.226257 13.4399C0.226257 11.742 0.512716 10.2211 1.08563 8.87738C1.66897 7.52321 2.47105 6.35134 3.49188 5.36176C5.67938 3.25759 8.42417 2.20551 11.7263 2.20551C15.0075 2.20551 17.695 3.24196 19.7888 5.31488C21.9138 7.41905 22.9763 10.1482 22.9763 13.5024C22.9763 16.8461 21.8877 19.5961 19.7106 21.7524C18.346 23.0857 16.669 24.0076 14.6794 24.518C13.6898 24.768 12.5388 24.893 11.2263 24.893C9.92417 24.893 8.58563 24.6274 7.21063 24.0961C5.83563 23.5545 4.63251 22.7836 3.60126 21.7836ZM11.7106 3.34613C11.1377 3.34613 10.6013 3.3878 10.1013 3.47113V23.6274C10.5804 23.7107 11.1169 23.7524 11.7106 23.7524C14.4919 23.7524 16.8356 22.8253 18.7419 20.9711C20.7315 19.044 21.7263 16.5545 21.7263 13.5024C21.7263 10.5961 20.794 8.17946 18.9294 6.25238C17.044 4.31488 14.6377 3.34613 11.7106 3.34613ZM24.7419 7.90863H31.82L36.07 16.6743L38.7419 11.3618C39.294 10.2263 39.6377 9.38259 39.7731 8.83051C39.919 8.27842 40.0596 7.93988 40.195 7.81488C40.3408 7.68988 40.5127 7.62738 40.7106 7.62738C40.919 7.62738 41.0804 7.69509 41.195 7.83051C41.3096 7.96592 41.3669 8.10134 41.3669 8.23676C41.3669 8.37217 41.3513 8.50759 41.32 8.64301C41.2992 8.77842 41.2523 8.96071 41.1794 9.18988C41.0231 9.61696 40.695 10.3565 40.195 11.4086L33.32 25.2993L24.7419 7.90863ZM54.5544 23.5649C53.221 24.4503 51.7419 24.893 50.1169 24.893C47.9606 24.893 46.2315 24.3513 44.9294 23.268C43.5752 22.1534 42.8981 20.6065 42.8981 18.6274C42.8981 16.8774 43.57 15.4399 44.9138 14.3149C46.2888 13.1795 48.096 12.6118 50.3356 12.6118C51.8356 12.6118 53.2419 12.8982 54.5544 13.4711V9.17426C53.6065 8.90342 52.7679 8.76801 52.0388 8.76801C51.32 8.76801 50.7106 8.79926 50.2106 8.86176C49.7106 8.92426 49.2367 9.01801 48.7888 9.14301C47.82 9.41384 47.0856 9.77842 46.5856 10.2368C46.294 10.5076 46.0283 10.643 45.7888 10.643C45.5492 10.643 45.3669 10.5857 45.2419 10.4711C45.1169 10.3461 45.0544 10.2107 45.0544 10.0649C45.0544 9.91905 45.0804 9.78884 45.1325 9.67426C45.1846 9.54926 45.2835 9.42426 45.4294 9.29926C45.7419 9.02842 46.2627 8.75759 46.9919 8.48676C48.5023 7.91384 50.0179 7.62738 51.5388 7.62738C56.1638 7.62738 59.1169 8.73155 60.3981 10.9399C60.9606 11.919 61.2419 13.2055 61.2419 14.7993V24.5961H54.5544V23.5649ZM54.5544 14.6899C53.2419 14.0545 51.9346 13.7368 50.6325 13.7368C50.4242 13.7368 50.2263 13.7524 50.0388 13.7836V23.7211C50.0908 23.7315 50.1481 23.7368 50.2106 23.7368C50.2731 23.7368 50.3356 23.7368 50.3981 23.7368C51.8252 23.7368 53.2106 23.2315 54.5544 22.2211V14.6899ZM77.695 9.61176C77.4346 9.44509 77.1533 9.36176 76.8513 9.36176C76.5492 9.36176 76.2367 9.43467 75.9138 9.58051C75.5908 9.71592 75.2523 9.90863 74.8981 10.1586C74.1585 10.6899 73.4763 11.3982 72.8513 12.2836V24.5961H66.1325V7.90863H72.8513V10.5805C74.6325 8.61176 76.6481 7.62738 78.8981 7.62738C82.5752 7.62738 84.4138 9.40863 84.4138 12.9711V24.5961H77.695V9.61176ZM92.82 5.17426C91.7471 5.17426 90.9085 4.93467 90.3044 4.45551C89.7002 3.97634 89.3981 3.34613 89.3981 2.56488C89.3981 1.90863 89.7315 1.34613 90.3981 0.87738C91.1065 0.37738 91.8565 0.12738 92.6481 0.12738C93.4398 0.12738 94.0492 0.205505 94.4763 0.361755C94.9138 0.518005 95.2835 0.72113 95.5856 0.97113C96.1898 1.48155 96.4919 2.0753 96.4919 2.75238C96.4919 3.42946 96.1481 4.00238 95.4606 4.47113C94.7731 4.93988 93.8929 5.17426 92.82 5.17426ZM89.5388 7.90863H96.2575V24.5961H89.5388V7.90863ZM99.6638 24.893C99.5179 24.893 99.3825 24.8305 99.2575 24.7055C99.1325 24.5909 99.07 24.4503 99.07 24.2836C99.07 23.9503 99.2575 23.643 99.6325 23.3618C100.008 23.0805 100.278 22.8253 100.445 22.5961C100.445 22.5961 101.825 20.9034 104.586 17.518L98.8356 7.90863H105.945L109.258 13.4243C111.185 10.9451 112.221 9.59092 112.367 9.36176C112.648 8.92426 112.836 8.58571 112.929 8.34613C113.127 7.86696 113.403 7.62738 113.758 7.62738C113.924 7.62738 114.07 7.68467 114.195 7.79926C114.33 7.90342 114.398 8.03363 114.398 8.18988C114.398 8.34613 114.367 8.50238 114.304 8.65863C114.252 8.81488 114.159 9.0128 114.023 9.25238C113.752 9.71071 113.278 10.3722 112.601 11.2368L109.961 14.5961L115.976 24.5961H108.836L105.273 18.6586L101.461 23.4555C100.804 24.2784 100.336 24.742 100.054 24.8461C99.9502 24.8774 99.82 24.893 99.6638 24.893Z" fill="white"/>
</svg>
